<svg xmlns="http://www.w3.org/2000/svg" width="22" height="23.573" viewBox="0 0 22 23.573">
  <g id="Twotone" transform="translate(-4 -1.997)">
    <g id="Stroke_copy_3" data-name="Stroke copy 3" transform="translate(4.393 2.391)">
      <g id="Group_5235" data-name="Group 5235" transform="translate(0)">
        <path id="Path_3665" data-name="Path 3665" d="M46.553,11a2.55,2.55,0,0,0-2.493,3.1l1.118-.746V15.7A2.554,2.554,0,1,0,46.553,11Z" transform="translate(-28.678 -7.857)" fill="#b5df4a"/>
        <path id="Path_3666" data-name="Path 3666" d="M35.891,3.786a1.169,1.169,0,0,0-.537.135,1.566,1.566,0,0,0-2.854,0A1.17,1.17,0,0,0,30.919,5.5a1.56,1.56,0,0,0-.379,2.605,1.52,1.52,0,0,0-.463,1.65L31.962,8.5l2.357,1.571.774-.516a1.205,1.205,0,0,0-.062-.277c.025,0,.049.007.075.007a1.174,1.174,0,0,0,.873-1.964A1.159,1.159,0,0,0,36.2,6.1a1.176,1.176,0,0,0-.306-2.312Z" transform="translate(-20.177 -3)" fill="#b7e14f"/>
        <path id="Path_3667" data-name="Path 3667" d="M15.107,8.5l2.357,1.571.57-.38-2.955-5.12a3.143,3.143,0,0,0-4.294-1.15,1.571,1.571,0,0,0-.575,2.147l2.583,4.474Z" transform="translate(-8.035 -2.999)" fill="#aed648"/>
        <path id="Path_3668" data-name="Path 3668" d="M15.714,20.536V17l-2.357,1.571L11,17v5.107h1.179v2.032a2.682,2.682,0,0,0,.786,1.9,2.682,2.682,0,0,1,.786,1.9v6.353H25.143V29.964a9.431,9.431,0,0,1-9.429-9.429Z" transform="translate(-8.643 -11.5)" fill="#cff09e"/>
        <path id="Path_3669" data-name="Path 3669" d="M47,17l2.357,1.571L51.714,17V34.286H47Z" transform="translate(-30.5 -11.5)" fill="#b1d845"/>
        <path id="Path_3670" data-name="Path 3670" d="M55.357,17V34.286H53V18.571Z" transform="translate(-34.143 -11.5)" fill="#b4e145"/>
        <path id="Path_3671" data-name="Path 3671" d="M49.357,55,47,57.357h4.714Z" transform="translate(-30.5 -34.571)" fill="#cff09e"/>
        <g id="Group_5233" data-name="Group 5233" transform="translate(0 9.036)">
          <path id="Path_3672" data-name="Path 3672" d="M10.5,37.111v5.068H5V35.826a2.685,2.685,0,0,1,.785-1.9,2.685,2.685,0,0,0,.786-1.9V30H8.929v.79A1.243,1.243,0,0,0,7.75,32.031a2.685,2.685,0,0,1-.785,1.9,2.685,2.685,0,0,0-.786,1.9,4.385,4.385,0,0,0,2.88,4.121,4.144,4.144,0,0,1-.13-.911A1.964,1.964,0,0,1,10.5,37.111Z" transform="translate(-5 -28.429)" fill="#cff09e"/>
          <g id="Group_5232" data-name="Group 5232">
            <path id="Path_3673" data-name="Path 3673" d="M8,26h3.143v1.571H8Z" transform="translate(-6.821 -26)" fill="#b8e24e"/>
            <path id="Path_3674" data-name="Path 3674" d="M5,47h5.5v2.75H5Z" transform="translate(-5 -38.75)" fill="#aed648"/>
          </g>
        </g>
        <g id="Group_5234" data-name="Group 5234" transform="translate(4.321 14.536)">
          <path id="Path_3675" data-name="Path 3675" d="M20.321,47a1.947,1.947,0,0,0-1.179.4A1.955,1.955,0,0,0,16,48.964c0,1.085.88,3.536,1.964,3.536a1.947,1.947,0,0,0,1.179-.4,1.947,1.947,0,0,0,1.179.4c1.085,0,1.964-2.451,1.964-3.536A1.964,1.964,0,0,0,20.321,47Z" transform="translate(-16 -44.25)" fill="#b7df50"/>
          <path id="Path_3676" data-name="Path 3676" d="M25.179,41.571H24A1.571,1.571,0,0,1,25.571,40H26.75A1.571,1.571,0,0,1,25.179,41.571Z" transform="translate(-20.857 -40)" fill="#b1d94b"/>
        </g>
      </g>
    </g>
    <g id="Stroke_Close_copy" data-name="Stroke Close copy" transform="translate(4 1.997)">
      <g id="Group_5236" data-name="Group 5236" transform="translate(0 0)">
        <path id="Path_3677" data-name="Path 3677" d="M25.793,7.544a.393.393,0,0,0-.4.02l-.2.136a2.937,2.937,0,0,0-.825-1.682,2.015,2.015,0,0,1,.288-.064l.224-.031a.393.393,0,0,0-.106-.779l-.225.031a2.817,2.817,0,0,0-.925.3,2.932,2.932,0,0,0-2.249-.191,1.556,1.556,0,0,0,.31-.926,1.571,1.571,0,0,0-1.571-1.571,1.5,1.5,0,0,0-.364.045,1.957,1.957,0,0,0-3.2,0,1.5,1.5,0,0,0-.364-.045,1.571,1.571,0,0,0-1.571,1.571,1.5,1.5,0,0,0,.045.364A1.949,1.949,0,0,0,14.221,7.5a2,2,0,0,0-.153.238l-1.9-3.289-.393-.681A3.536,3.536,0,0,0,6.946,2.472a1.967,1.967,0,0,0-.719,2.683l1.8,3.113-1.057-.7a.393.393,0,0,0-.611.327v3.143H5.571a.393.393,0,0,0-.393.393V13a.393.393,0,0,0,.393.393V15.03A2.274,2.274,0,0,1,4.9,16.649,3.054,3.054,0,0,0,4,18.824v6.353a.393.393,0,0,0,.393.393h5.5a.389.389,0,0,0,.279-.118,1.182,1.182,0,0,0,.506.118,2.314,2.314,0,0,0,1.179-.323,2.314,2.314,0,0,0,1.178.323H25.607A.393.393,0,0,0,26,25.177V7.891a.393.393,0,0,0-.207-.347ZM23.25,23.375l1.409,1.409H21.841Zm.393-.718V20.462a.393.393,0,1,0-.786,0v2.194l-1.571,1.571V8.625l1.571,1.047v4.9a.393.393,0,1,0,.786,0v-4.9l1.571-1.047v15.6ZM22.893,6.02a2.835,2.835,0,0,0-.373.49.393.393,0,1,0,.673.4,2.026,2.026,0,0,1,.432-.506,2.156,2.156,0,0,1,.8,1.679c0,.042-.007.082-.009.123l-1.169.78L21.111,7.565a.391.391,0,0,0-.218-.065,1.551,1.551,0,0,0-.215-.786,1.6,1.6,0,0,0,.088-.176,2.151,2.151,0,0,1,2.127-.517ZM15.3,5.25a.393.393,0,0,0,.186-.537.772.772,0,0,1-.092-.357.786.786,0,0,1,1.143-.694.393.393,0,0,0,.537-.186,1.173,1.173,0,0,1,2.139,0,.393.393,0,0,0,.229.208.4.4,0,0,0,.308-.022.781.781,0,1,1,.561,1.448.393.393,0,0,0-.262.525.786.786,0,0,1,.058.292.776.776,0,0,1-.205.523.393.393,0,0,0,0,.526.781.781,0,0,1-.569,1.309c-.01,0-.052-.006-.062-.006a.389.389,0,0,0-.4.491l-.334.223-1.6-1.065a4.077,4.077,0,0,1,2.068-1.843.393.393,0,1,0-.292-.73,4.857,4.857,0,0,0-1.249.739,4.573,4.573,0,0,0-.121-1.439.393.393,0,1,0-.762.191,3.781,3.781,0,0,1-.317,2.668.39.39,0,0,0-.306.053l-1.329.886a1.171,1.171,0,0,1,.383-.656.393.393,0,0,0,0-.589,1.162,1.162,0,0,1-.408-.885A1.181,1.181,0,0,1,15.3,5.25ZM13.867,8.96l-.046.031L11.682,7.565a.386.386,0,0,0-.111-.05l1.1-.633ZM7.339,3.153A2.75,2.75,0,0,1,11.1,4.159l.2.34-1.36.786a.393.393,0,0,0,.393.681l1.361-.786L12.275,6.2l-1.361.786a.393.393,0,0,0,.115.723L9.282,8.873,6.907,4.763A1.179,1.179,0,0,1,7.339,3.153Zm-.2,5.472L8.889,9.789a.393.393,0,0,0,.436,0l2.139-1.427L13.6,9.788a.393.393,0,0,0,.436,0l2.139-1.426,2.139,1.426a.393.393,0,0,0,.436,0L20.5,8.625V24.784H14.3a6.171,6.171,0,0,0,1.089-3.143,2.36,2.36,0,0,0-2.357-2.357,2.3,2.3,0,0,0-.827.157,3.066,3.066,0,0,0-.139-.55h.966A1.967,1.967,0,0,0,15,16.927a.393.393,0,0,0-.393-.393H13.429a1.962,1.962,0,0,0-1.886,1.441,3.029,3.029,0,0,0-.647-.589.393.393,0,1,0-.436.654,2.248,2.248,0,0,1,.943,1.366,2.3,2.3,0,0,0-.724-.121,2.357,2.357,0,0,0-.393.035v-.5a3.056,3.056,0,0,0-.9-2.175,2.274,2.274,0,0,1-.671-1.619V13.391A.393.393,0,0,0,9.107,13V11.427a.393.393,0,0,0-.393-.393H7.143Zm5.174,9.48a1.181,1.181,0,0,1,1.111-.786h.719a1.181,1.181,0,0,1-1.111.786ZM8.349,22.034H4.786V20.07H8.926a2.345,2.345,0,0,0-.605,1.571,3.3,3.3,0,0,0,.029.393ZM5.964,11.82H8.321v.786H5.964ZM5.456,17.2a3.056,3.056,0,0,0,.9-2.175V13.391H7.929V15.03a3.054,3.054,0,0,0,.9,2.175A2.274,2.274,0,0,1,9.5,18.824v.46H4.786v-.46A2.274,2.274,0,0,1,5.456,17.2ZM4.786,22.82H8.507a5.91,5.91,0,0,0,.9,1.964H4.786Zm7.307,1.642a.393.393,0,0,0-.474,0,1.555,1.555,0,0,1-.941.322c-.707,0-1.571-2.1-1.571-3.143a1.571,1.571,0,0,1,1.571-1.571,1.555,1.555,0,0,1,.943.322.393.393,0,0,0,.474,0,1.555,1.555,0,0,1,.941-.322,1.571,1.571,0,0,1,1.571,1.571c0,1.039-.864,3.143-1.571,3.143a1.555,1.555,0,0,1-.943-.322Z" transform="translate(-4 -1.997)" fill="#94b92d"/>
        <path id="Path_3678" data-name="Path 3678" d="M52.393,39a.393.393,0,0,0-.393.393v1.571a.393.393,0,1,0,.786,0V39.393A.393.393,0,0,0,52.393,39Z" transform="translate(-33.143 -24.463)" fill="#94b92d"/>
        <path id="Path_3679" data-name="Path 3679" d="M31.393,27.786h3.536a.393.393,0,1,0,0-.786H31.393a.393.393,0,1,0,0,.786Z" transform="translate(-20.393 -17.177)" fill="#a3cd39"/>
        <path id="Path_3680" data-name="Path 3680" d="M36.75,32H34.393a.393.393,0,0,0,0,.786H36.75a.393.393,0,1,0,0-.786Z" transform="translate(-22.214 -20.213)" fill="#a3cd39"/>
      </g>
    </g>
  </g>
</svg>
